HIERARCHY
ROOT Hips
{
	OFFSET 0.00000 0.00000 0.00000
	CHANNELS 6 Xposition Yposition Zposition Yrotation Zrotation Xrotation 
	JOINT Lumbar
	{
		OFFSET 0 0 0
		CHANNELS 3 Zrotation Xrotation Yrotation
		JOINT Neck
		{
			OFFSET 0.00 0.2701 0.00
			CHANNELS 3 Zrotation Xrotation Yrotation
			End Site
			{
				OFFSET 0.00 0.1379 0.00
			}
		}
		JOINT RightShoulder
		{
			OFFSET 0.0119 0.2289 0.1181
			CHANNELS 3 Zrotation Xrotation Yrotation
			JOINT RightElbow
			{
				OFFSET 0.00 -0.1475 0.00
				CHANNELS 2 Zrotation Yrotation
				JOINT RightWrist
				{
					OFFSET 0.00 -0.1605 0.00
					CHANNELS 2 Zrotation Xrotation
					End Site
					{
						OFFSET 0.0040 -0.1068 0.0006
					}
				}
			}
		}
		JOINT LeftShoulder
		{
			OFFSET 0.0119 0.2289 -0.1181
			CHANNELS 3 Zrotation Xrotation Yrotation
			JOINT LeftElbow
			{
				OFFSET 0.00 -0.1475 0.00
				CHANNELS 2 Zrotation Yrotation
				JOINT LeftWrist
				{
					OFFSET 0.00 -0.1605 0.00
					CHANNELS 2 Zrotation Xrotation
					End Site
					{
						OFFSET 0.0040 -0.1068 -0.0006
					}
				}
			}
		}
	}
	JOINT RightHip
	{
		OFFSET 0.0316 -0.0424 0.0458
		CHANNELS 3 Zrotation Xrotation Yrotation
		JOINT RightKnee
		{
			OFFSET 0.00 -0.2438 0.00
			CHANNELS 1 Zrotation
			JOINT RightAnkle
			{
				OFFSET 0.00 -0.2449 0.00
				CHANNELS 3 Zrotation Xrotation Yrotation
				End Site
				{
					OFFSET 0.1237 -0.0542 0.0051
				}
			}
		}
	}
	JOINT LeftHip
	{
		OFFSET 0.0316 -0.0424 -0.0458
		CHANNELS 3 Zrotation Xrotation Yrotation
		JOINT LeftKnee
		{
			OFFSET 0.00 -0.2438 0.00
			CHANNELS 1 Zrotation
			JOINT LeftAnkle
			{
				OFFSET 0.00 -0.2449 0.00
				CHANNELS 3 Zrotation Xrotation Yrotation
				End Site
				{
					OFFSET 0.1237 -0.0542 -0.0051
				}
			}
		}
	}
}
MOTION
Frames: 11
Frame Time: 0.02
0.00025 -0.00014 -5e-05 -176.5303 -30.42393 3.53998 46.99962 -0.89432 -4.20303 -12.488 2.73054 -1.28155 -20.82456 -8.25032 4.74251 31.74725 69.92555 1.50495 -2.47032 -23.94562 5.41846 4.92723 32.56056 -103.81023 14.96209 -1.95737 27.736 -1.76791 -9.2008 -20.21513 -6.27277 -3.37265 -3.84431 32.83747 2.23838 3.75016 -24.07683 -6.417 1.52181 2.94051
0.00063 -0.0001 0.00027 -176.45168 -30.4016 3.51785 46.99054 -0.90737 -4.22231 -12.51426 2.72402 -1.28197 -20.77703 -7.79819 2.93619 31.66564 75.17889 2.98778 -1.62911 -23.95298 5.42286 4.96302 32.55176 -103.86496 15.01762 -1.95792 27.74549 -1.78008 -9.2734 -20.21863 -6.27356 -3.3705 -3.84378 32.86693 2.26373 3.88233 -24.08346 -6.42554 1.49604 2.93095
0.00101 -6e-05 0.0006 -176.37322 -30.3793 3.49576 46.98146 -0.92037 -4.2415 -12.54042 2.71753 -1.28239 -20.72977 -7.348 1.13706 31.58418 80.4095 4.46418 -0.79154 -23.96042 5.42722 4.99881 32.54313 -103.91979 15.07307 -1.9585 27.75497 -1.79224 -9.34596 -20.22213 -6.27435 -3.36834 -3.84326 32.89633 2.28907 4.0144 -24.09007 -6.43406 1.47031 2.92141
0.00138 -2e-05 0.00092 -176.29483 -30.35704 3.4737 46.9724 -0.93337 -4.26071 -12.5666 2.71102 -1.2828 -20.68241 -6.89736 -0.66341 31.50279 85.64538 5.94207 0.04687 -23.96777 5.43159 5.03451 32.53438 -103.97419 15.12838 -1.95902 27.76443 -1.80438 -9.41837 -20.22562 -6.27514 -3.36619 -3.84274 32.9257 2.31436 4.14624 -24.09667 -6.44258 1.44461 2.91188
0.00176 3e-05 0.00124 -176.21632 -30.33475 3.45159 46.96336 -0.94644 -4.28002 -12.59288 2.70447 -1.28322 -20.63475 -6.44455 -2.47175 31.42135 90.90704 7.42728 0.88941 -23.97503 5.43605 5.07013 32.5254 -104.02896 15.18394 -1.95958 27.7739 -1.8165 -9.49073 -20.2291 -6.27593 -3.36405 -3.84222 32.95512 2.33964 4.27801 -24.10329 -6.45108 1.4189 2.90235
0.00214 7e-05 0.00157 -176.13797 -30.31244 3.42954 46.9542 -0.9593 -4.29895 -12.61878 2.6981 -1.28364 -20.58831 -5.99989 -4.25148 31.33986 96.0725 8.8852 1.71657 -23.98283 5.44021 5.10628 32.51751 -104.0842 15.23927 -1.96023 27.78338 -1.82876 -9.56371 -20.23267 -6.27671 -3.36188 -3.84168 32.98446 2.3651 4.41068 -24.1099 -6.45965 1.39313 2.89277
0.00252 0.00011 0.00189 -176.05938 -30.2902 3.40741 46.94529 -0.97254 -4.31862 -12.64543 2.69139 -1.28405 -20.53947 -5.53942 -6.08647 31.25843 101.42382 10.39581 2.57343 -23.98953 5.44491 5.1414 32.50744 -104.13697 15.29447 -1.96049 27.79282 -1.84072 -9.63539 -20.23605 -6.27751 -3.35976 -3.84118 33.01393 2.39017 4.5415 -24.1165 -6.46809 1.36749 2.88329
0.00289 0.00015 0.00221 -175.98102 -30.2679 3.38536 46.93615 -0.98546 -4.33763 -12.67138 2.68498 -1.28447 -20.49284 -5.09334 -7.87114 31.17718 106.60741 11.85895 3.40348 -23.99723 5.44921 5.17732 32.49938 -104.1947 15.35078 -1.9615 27.80232 -1.85295 -9.70822 -20.2396 -6.27829 -3.35759 -3.84064 33.0433 2.41557 4.67386 -24.12312 -6.47664 1.34174 2.87373
0.00327 0.00019 0.00253 -175.90286 -30.2455 3.36336 46.92672 -0.99787 -4.35574 -12.69649 2.67899 -1.28488 -20.44896 -4.66552 -9.59224 31.09515 111.57243 13.2599 4.19862 -24.00622 5.45259 5.21482 32.4938 -104.24792 15.40453 -1.96187 27.81181 -1.86556 -9.78271 -20.24337 -6.27907 -3.35536 -3.84006 33.07249 2.44153 4.80888 -24.12972 -6.48537 1.31579 2.86402
0.00365 0.00023 0.00286 -175.82331 -30.22358 3.34093 46.91893 -1.01285 -4.37874 -12.7265 2.67073 -1.28529 -20.38939 -4.13463 -11.67294 31.0146 117.75433 15.00614 5.18822 -24.00799 5.46 5.24506 32.47401 -104.2953 15.46126 -1.96124 27.82112 -1.87616 -9.84841 -20.24593 -6.27991 -3.35347 -3.83973 33.10253 2.46477 4.93095 -24.13633 -6.49321 1.29079 2.85504
0.00403 0.00027 0.00317 -175.74684 -30.20073 3.3195 46.90768 -1.02264 -4.39163 -12.7461 2.66718 -1.28573 -20.3628 -3.8199 -12.99891 30.9329 121.39517 16.03198 5.77167 -24.02488 5.45972 5.28943 32.48418 -104.37526 15.51918 -1.96573 27.83094 -1.89088 -9.93213 -20.25101 -6.28061 -3.35089 -3.83889 33.13089 2.49343 5.07877 -24.14298 -6.50284 1.26395 2.8446
